<svg width="18.735352" height="19.984375" viewBox="0 0 18.7354 19.9844" fill="none" xmlns="http://www.w3.org/2000/svg" xmlns:xlink="http://www.w3.org/1999/xlink">
	<desc>
			Created with Pixso.
	</desc>
	<defs/>
	<path id="Vector" d="M1.62354 19.9844C0.749512 19.9844 0.25 19.6097 0.125 18.9852C-0.25 17.986 0.749512 17.3615 1.12402 17.1117C1.87354 16.6121 2.24805 16.2373 2.37305 15.8627C2.37305 15.6128 2.24805 15.363 1.99854 14.9883C1.99854 14.9883 1.99854 14.8634 1.87354 14.8634C0.624512 13.2396 0 11.2412 0 9.2428C0 4.12183 4.24658 0 9.36768 0C14.4888 0 18.7354 4.12183 18.7354 9.2428C18.7354 14.3638 14.4888 18.4856 9.36768 18.4856C8.74316 18.4856 8.11865 18.3607 7.49414 18.2357C4.24658 19.8595 1.87354 19.9844 1.87354 19.9844C1.74854 19.9844 1.74854 19.9844 1.62354 19.9844ZM4.12158 13.6144C4.74609 14.4886 4.99609 15.4879 4.87109 16.3622C4.87109 16.4872 4.74609 16.7369 4.74609 16.8618C5.37061 16.6121 5.99512 16.3622 6.74463 15.9875C6.99463 15.8627 7.24414 15.7377 7.49414 15.8627L7.61914 15.8627C8.11865 15.9875 8.74316 16.1124 9.36768 16.1124C13.1147 16.1124 16.2373 13.1147 16.2373 9.36768C16.2373 5.62061 13.1147 2.49805 9.36768 2.49805C5.62061 2.49805 2.49805 5.49573 2.49805 9.2428C2.49805 10.7416 2.99756 12.2405 3.99707 13.3646C3.99707 13.4895 4.12158 13.4895 4.12158 13.6144Z" fill="#FFFFFF" fill-opacity="1.000000" fill-rule="nonzero"/>
</svg>
